# xmcd
#
# Track frame offsets:
#	150
#	33435
#	51857
#	79617
#	100675
#	106652
#	127985
#	151450
#	180572
#	208817
#	222660
#	232067
#	271175
#	292352
#	307252
#
# Disc length: 4439 seconds
#
# Revision: 1
# Processed by: cddbd v1.5.1PL0 Copyright (c) Steve Scherf et al.
# Submitted via: CDex 1.50Beta5
#
DISCID=dd11550f
DTITLE=yngwie malmsteen - LIVE at KYOTO September 16th,1955
DYEAR=1900
DGENRE=
TTITLE0=SEVENTH SIGN
TTITLE1=BAND INTRODUCTION
TTITLE2=VOO DOO
TTITLE3=BASS/DRUM SOLO
TTITLE4=VOO DOO
TTITLE5=AMBERDAWN〜BROTHERS
TTITLE6=THE ONLY ONE
TTITLE7=FIRE IN THE SKY
TTITLE8=TOO YOUNG TO DIE,TOO DRUNK TO LIVE
TTITLE9=FOREVER ONE
TTITLE10=ARIA〜FUGUE
TTITLE11=BLACK STAR
TTITLE12=I'LL SEE THE LIGHT,TONIGHT
TTITLE13=BURN-Live in Osaka 9,15,1995
TTITLE14=SPANISH CASTLE MAGIC-Live in Hyogo 9.18.1995
EXTD=
EXTT0=
EXTT1=
EXTT2=
EXTT3=
EXTT4=
EXTT5=
EXTT6=
EXTT7=
EXTT8=
EXTT9=
EXTT10=
EXTT11=
EXTT12=
EXTT13=
EXTT14=
PLAYORDER=
